<svg width="1440" height="771" viewBox="0 0 1440 771" fill="none" xmlns="http://www.w3.org/2000/svg">
<g opacity="0.4">
<rect x="-14" y="403" width="37" height="368" rx="10" fill="url(#paint0_linear_42_119)"/>
<rect x="41" y="447" width="37" height="324" rx="10" fill="url(#paint1_linear_42_119)"/>
<rect x="96" y="228" width="37" height="543" rx="10" fill="url(#paint2_linear_42_119)"/>
<rect x="151" y="328" width="37" height="443" rx="10" fill="url(#paint3_linear_42_119)"/>
<rect x="206" y="245" width="37" height="526" rx="10" fill="url(#paint4_linear_42_119)"/>
<rect x="261" y="162" width="37" height="609" rx="10" fill="url(#paint5_linear_42_119)"/>
<rect x="316" y="64" width="37" height="707" rx="10" fill="url(#paint6_linear_42_119)"/>
<rect x="371" width="37" height="771" rx="10" fill="url(#paint7_linear_42_119)"/>
<rect x="426" y="447" width="37" height="324" rx="10" fill="url(#paint8_linear_42_119)"/>
<rect x="481" y="31" width="37" height="740" rx="10" fill="url(#paint9_linear_42_119)"/>
<rect x="536" y="57" width="37" height="714" rx="10" fill="url(#paint10_linear_42_119)"/>
<rect x="591" y="109" width="37" height="662" rx="10" fill="url(#paint11_linear_42_119)"/>
<rect x="646" y="280" width="37" height="491" rx="10" fill="url(#paint12_linear_42_119)"/>
<rect x="701" y="209" width="37" height="562" rx="10" fill="url(#paint13_linear_42_119)"/>
<rect x="756" y="165" width="37" height="606" rx="10" fill="url(#paint14_linear_42_119)"/>
<rect x="811" y="236" width="37" height="535" rx="10" fill="url(#paint15_linear_42_119)"/>
<rect x="866" y="14" width="37" height="757" rx="10" fill="url(#paint16_linear_42_119)"/>
<rect x="921" y="169" width="37" height="602" rx="10" fill="url(#paint17_linear_42_119)"/>
<rect x="976" y="68" width="37" height="703" rx="10" fill="url(#paint18_linear_42_119)"/>
<rect x="1031" y="3" width="37" height="768" rx="10" fill="url(#paint19_linear_42_119)"/>
<rect x="1086" y="260" width="37" height="511" rx="10" fill="url(#paint20_linear_42_119)"/>
<rect x="1141" y="365" width="37" height="406" rx="10" fill="url(#paint21_linear_42_119)"/>
<rect x="1196" y="188" width="37" height="583" rx="10" fill="url(#paint22_linear_42_119)"/>
<rect x="1251" y="140" width="37" height="631" rx="10" fill="url(#paint23_linear_42_119)"/>
<rect x="1306" y="47" width="37" height="724" rx="10" fill="url(#paint24_linear_42_119)"/>
<rect x="1361" y="120" width="37" height="651" rx="10" fill="url(#paint25_linear_42_119)"/>
<rect x="1416" y="328" width="37" height="443" rx="10" fill="url(#paint26_linear_42_119)"/>
</g>
<defs>
<linearGradient id="paint0_linear_42_119" x1="4.5" y1="403" x2="4.90793" y2="757.711" gradientUnits="userSpaceOnUse">
<stop stop-color="#32C956"/>
<stop offset="1" stop-color="#32C956" stop-opacity="0"/>
</linearGradient>
<linearGradient id="paint1_linear_42_119" x1="59.5" y1="447" x2="59.8162" y2="759.3" gradientUnits="userSpaceOnUse">
<stop stop-color="#32C956"/>
<stop offset="1" stop-color="#32C956" stop-opacity="0"/>
</linearGradient>
<linearGradient id="paint2_linear_42_119" x1="114.5" y1="228" x2="115.388" y2="751.391" gradientUnits="userSpaceOnUse">
<stop stop-color="#32C956"/>
<stop offset="1" stop-color="#32C956" stop-opacity="0"/>
</linearGradient>
<linearGradient id="paint3_linear_42_119" x1="169.5" y1="328" x2="170.091" y2="755.002" gradientUnits="userSpaceOnUse">
<stop stop-color="#32C956"/>
<stop offset="1" stop-color="#32C956" stop-opacity="0"/>
</linearGradient>
<linearGradient id="paint4_linear_42_119" x1="224.5" y1="245" x2="225.333" y2="752.005" gradientUnits="userSpaceOnUse">
<stop stop-color="#32C956"/>
<stop offset="1" stop-color="#32C956" stop-opacity="0"/>
</linearGradient>
<linearGradient id="paint5_linear_42_119" x1="279.5" y1="162" x2="280.617" y2="749.007" gradientUnits="userSpaceOnUse">
<stop stop-color="#32C956"/>
<stop offset="1" stop-color="#32C956" stop-opacity="0"/>
</linearGradient>
<linearGradient id="paint6_linear_42_119" x1="334.5" y1="64" x2="336.006" y2="745.467" gradientUnits="userSpaceOnUse">
<stop stop-color="#32C956"/>
<stop offset="1" stop-color="#32C956" stop-opacity="0"/>
</linearGradient>
<linearGradient id="paint7_linear_42_119" x1="389.5" y1="5.12189e-09" x2="391.291" y2="743.155" gradientUnits="userSpaceOnUse">
<stop stop-color="#32C956"/>
<stop offset="1" stop-color="#32C956" stop-opacity="0"/>
</linearGradient>
<linearGradient id="paint8_linear_42_119" x1="444.5" y1="447" x2="444.816" y2="759.3" gradientUnits="userSpaceOnUse">
<stop stop-color="#32C956"/>
<stop offset="1" stop-color="#32C956" stop-opacity="0"/>
</linearGradient>
<linearGradient id="paint9_linear_42_119" x1="499.5" y1="31" x2="501.15" y2="744.275" gradientUnits="userSpaceOnUse">
<stop stop-color="#32C956"/>
<stop offset="1" stop-color="#32C956" stop-opacity="0"/>
</linearGradient>
<linearGradient id="paint10_linear_42_119" x1="554.5" y1="57" x2="556.036" y2="745.214" gradientUnits="userSpaceOnUse">
<stop stop-color="#32C956"/>
<stop offset="1" stop-color="#32C956" stop-opacity="0"/>
</linearGradient>
<linearGradient id="paint11_linear_42_119" x1="609.5" y1="109" x2="610.82" y2="747.092" gradientUnits="userSpaceOnUse">
<stop stop-color="#32C956"/>
<stop offset="1" stop-color="#32C956" stop-opacity="0"/>
</linearGradient>
<linearGradient id="paint12_linear_42_119" x1="664.5" y1="280" x2="665.226" y2="753.269" gradientUnits="userSpaceOnUse">
<stop stop-color="#32C956"/>
<stop offset="1" stop-color="#32C956" stop-opacity="0"/>
</linearGradient>
<linearGradient id="paint13_linear_42_119" x1="719.5" y1="209" x2="720.451" y2="750.704" gradientUnits="userSpaceOnUse">
<stop stop-color="#32C956"/>
<stop offset="1" stop-color="#32C956" stop-opacity="0"/>
</linearGradient>
<linearGradient id="paint14_linear_42_119" x1="774.5" y1="165" x2="775.606" y2="749.115" gradientUnits="userSpaceOnUse">
<stop stop-color="#32C956"/>
<stop offset="1" stop-color="#32C956" stop-opacity="0"/>
</linearGradient>
<linearGradient id="paint15_linear_42_119" x1="829.5" y1="236" x2="830.362" y2="751.68" gradientUnits="userSpaceOnUse">
<stop stop-color="#32C956"/>
<stop offset="1" stop-color="#32C956" stop-opacity="0"/>
</linearGradient>
<linearGradient id="paint16_linear_42_119" x1="884.5" y1="14" x2="886.226" y2="743.66" gradientUnits="userSpaceOnUse">
<stop stop-color="#32C956"/>
<stop offset="1" stop-color="#32C956" stop-opacity="0"/>
</linearGradient>
<linearGradient id="paint17_linear_42_119" x1="939.5" y1="169" x2="940.592" y2="749.26" gradientUnits="userSpaceOnUse">
<stop stop-color="#32C956"/>
<stop offset="1" stop-color="#32C956" stop-opacity="0"/>
</linearGradient>
<linearGradient id="paint18_linear_42_119" x1="994.5" y1="68" x2="995.989" y2="745.611" gradientUnits="userSpaceOnUse">
<stop stop-color="#32C956"/>
<stop offset="1" stop-color="#32C956" stop-opacity="0"/>
</linearGradient>
<linearGradient id="paint19_linear_42_119" x1="1049.5" y1="3" x2="1051.28" y2="743.263" gradientUnits="userSpaceOnUse">
<stop stop-color="#32C956"/>
<stop offset="1" stop-color="#32C956" stop-opacity="0"/>
</linearGradient>
<linearGradient id="paint20_linear_42_119" x1="1104.5" y1="260" x2="1105.29" y2="752.546" gradientUnits="userSpaceOnUse">
<stop stop-color="#32C956"/>
<stop offset="1" stop-color="#32C956" stop-opacity="0"/>
</linearGradient>
<linearGradient id="paint21_linear_42_119" x1="1159.5" y1="365" x2="1160" y2="756.339" gradientUnits="userSpaceOnUse">
<stop stop-color="#32C956"/>
<stop offset="1" stop-color="#32C956" stop-opacity="0"/>
</linearGradient>
<linearGradient id="paint22_linear_42_119" x1="1214.5" y1="188" x2="1215.52" y2="749.946" gradientUnits="userSpaceOnUse">
<stop stop-color="#32C956"/>
<stop offset="1" stop-color="#32C956" stop-opacity="0"/>
</linearGradient>
<linearGradient id="paint23_linear_42_119" x1="1269.5" y1="140" x2="1270.7" y2="748.212" gradientUnits="userSpaceOnUse">
<stop stop-color="#32C956"/>
<stop offset="1" stop-color="#32C956" stop-opacity="0"/>
</linearGradient>
<linearGradient id="paint24_linear_42_119" x1="1324.5" y1="47" x2="1326.08" y2="744.853" gradientUnits="userSpaceOnUse">
<stop stop-color="#32C956"/>
<stop offset="1" stop-color="#32C956" stop-opacity="0"/>
</linearGradient>
<linearGradient id="paint25_linear_42_119" x1="1379.5" y1="120" x2="1380.78" y2="747.49" gradientUnits="userSpaceOnUse">
<stop stop-color="#32C956"/>
<stop offset="1" stop-color="#32C956" stop-opacity="0"/>
</linearGradient>
<linearGradient id="paint26_linear_42_119" x1="1434.5" y1="328" x2="1435.09" y2="755.002" gradientUnits="userSpaceOnUse">
<stop stop-color="#32C956"/>
<stop offset="1" stop-color="#32C956" stop-opacity="0"/>
</linearGradient>
</defs>
</svg>
