<svg width="31" height="31" viewBox="0 0 31 31" fill="none" xmlns="http://www.w3.org/2000/svg">
<path d="M13.047 7.24943L13.8583 8.70309C14.5904 10.0149 14.2965 11.7359 13.1434 12.889C13.1434 12.889 11.7447 14.2876 14.2806 16.8236C16.8165 19.3595 18.2152 17.9608 18.2152 17.9608C19.3683 16.8077 21.0893 16.5138 22.4011 17.246L23.8548 18.0572C25.8357 19.1627 26.0696 21.9408 24.3285 23.682C23.2822 24.7282 22.0005 25.5423 20.5836 25.596C18.1985 25.6864 14.1478 25.0828 10.0846 21.0196C6.02141 16.9564 5.41777 12.9057 5.50819 10.5206C5.5619 9.10372 6.376 7.82201 7.42226 6.77576C9.16344 5.03457 11.9415 5.26851 13.047 7.24943Z" fill="#32C956"/>
<path d="M17.0744 2.95431C17.1571 2.4432 17.6403 2.09648 18.1514 2.17923C18.183 2.18528 18.2848 2.20431 18.3382 2.21619C18.4448 2.23994 18.5936 2.27651 18.7791 2.33055C19.1501 2.4386 19.6683 2.61661 20.2904 2.90178C21.5357 3.47272 23.193 4.47148 24.9127 6.19123C26.6325 7.91097 27.6312 9.56824 28.2022 10.8136C28.4873 11.4356 28.6654 11.9539 28.7734 12.3248C28.8274 12.5103 28.864 12.6591 28.8878 12.7658C28.8996 12.8191 28.9083 12.862 28.9144 12.8936L28.9216 12.9326C29.0043 13.4437 28.6608 13.9468 28.1496 14.0296C27.64 14.1121 27.1599 13.7671 27.0751 13.2583C27.0725 13.2447 27.0653 13.208 27.0576 13.1734C27.0422 13.1041 27.0155 12.9944 26.9732 12.8492C26.8886 12.5588 26.7417 12.1271 26.4978 11.595C26.0105 10.5321 25.1342 9.06438 23.5869 7.51705C22.0396 5.96972 20.5718 5.09348 19.509 4.60619C18.9769 4.36225 18.5452 4.21533 18.2548 4.13074C18.1096 4.08845 17.9271 4.04656 17.8579 4.03114C17.3491 3.94636 16.9918 3.46396 17.0744 2.95431Z" fill="#32C956"/>
<path fill-rule="evenodd" clip-rule="evenodd" d="M17.3572 7.26614C17.4994 6.7683 18.0183 6.48002 18.5161 6.62227L18.2586 7.52369C18.5162 6.62227 18.5161 6.62227 18.5161 6.62227L18.518 6.62278L18.5199 6.62333L18.524 6.62455L18.5337 6.62744L18.5585 6.63515C18.5773 6.64118 18.6008 6.64903 18.6289 6.65899C18.685 6.67891 18.7592 6.70724 18.8503 6.74624C19.0324 6.82429 19.2812 6.94481 19.5868 7.1257C20.1987 7.4878 21.0339 8.08928 22.0151 9.07049C22.9963 10.0517 23.5978 10.8869 23.9599 11.4988C24.1408 11.8044 24.2613 12.0532 24.3394 12.2353C24.3784 12.3264 24.4067 12.4005 24.4266 12.4567C24.4366 12.4848 24.4444 12.5083 24.4504 12.5271L24.4582 12.5519L24.461 12.5616L24.4623 12.5657L24.4628 12.5676C24.4628 12.5676 24.4633 12.5694 23.5619 12.827L24.4633 12.5694C24.6056 13.0673 24.3173 13.5862 23.8195 13.7284C23.3258 13.8695 22.8115 13.5873 22.6642 13.0972L22.6596 13.0837C22.6529 13.0649 22.6391 13.0279 22.616 12.9739C22.5697 12.866 22.4858 12.6895 22.3463 12.4537C22.0676 11.9828 21.5642 11.2713 20.6893 10.3963C19.8143 9.52138 19.1028 9.01799 18.6318 8.73928C18.3961 8.59976 18.2196 8.51589 18.1117 8.46964C18.0576 8.44649 18.0207 8.4327 18.0019 8.42604L17.9884 8.42142C17.4983 8.27407 17.2161 7.75976 17.3572 7.26614Z" fill="#32C956"/>
</svg>
