<svg width="70" height="70" viewBox="0 0 70 70" fill="none" xmlns="http://www.w3.org/2000/svg">
<path opacity="0.5" d="M5.83337 35.0002C5.83337 21.2509 5.83337 14.3762 10.1047 10.1049C14.3761 5.8335 21.2507 5.8335 35 5.8335C48.7493 5.8335 55.624 5.8335 59.8953 10.1049C64.1667 14.3762 64.1667 21.2509 64.1667 35.0002C64.1667 48.7495 64.1667 55.6241 59.8953 59.8955C55.624 64.1668 48.7493 64.1668 35 64.1668C21.2507 64.1668 14.3761 64.1668 10.1047 59.8955C5.83337 55.6241 5.83337 48.7495 5.83337 35.0002Z" fill="#32C956"/>
<path d="M64.1666 14.5835C64.1666 19.416 60.2491 23.3335 55.4166 23.3335C50.5841 23.3335 46.6666 19.416 46.6666 14.5835C46.6666 9.751 50.5841 5.8335 55.4166 5.8335C60.2491 5.8335 64.1666 9.751 64.1666 14.5835Z" fill="#32C956"/>
<path d="M42.2916 31.354C41.0835 31.354 40.1041 30.3746 40.1041 29.1665C40.1041 27.9584 41.0835 26.979 42.2916 26.979H49.5833C50.7914 26.979 51.7708 27.9584 51.7708 29.1665V36.4582C51.7708 37.6663 50.7914 38.6457 49.5833 38.6457C48.3752 38.6457 47.3958 37.6663 47.3958 36.4582V34.4476L41.5258 40.3176C39.5325 42.3109 36.3007 42.3109 34.3074 40.3176L29.6822 35.6924C29.3975 35.4076 28.9358 35.4076 28.651 35.6924L21.9634 42.38C21.1091 43.2342 19.7241 43.2342 18.8698 42.38C18.0156 41.5257 18.0156 40.1406 18.8698 39.2864L25.5574 32.5988C27.5507 30.6055 30.7825 30.6055 32.7758 32.5988L37.401 37.224C37.6858 37.5087 38.1475 37.5087 38.4322 37.224L44.3022 31.354H42.2916Z" fill="#32C956"/>
</svg>
