<svg width="470" height="146" viewBox="0 0 470 146" fill="none" xmlns="http://www.w3.org/2000/svg">
<g opacity="0.4">
<path d="M126.601 159.54C112.374 159.54 99.394 156.24 87.6606 149.64C75.9273 142.893 66.614 133.58 59.7206 121.7C52.974 109.673 49.6006 96.18 49.6006 81.22C49.6006 66.26 52.974 52.84 59.7206 40.96C66.614 28.9333 75.9273 19.62 87.6606 13.02C99.394 6.27332 112.374 2.89999 126.601 2.89999C140.974 2.89999 154.027 6.27332 165.761 13.02C177.494 19.62 186.734 28.86 193.481 40.74C200.227 52.62 203.601 66.1133 203.601 81.22C203.601 96.3267 200.227 109.82 193.481 121.7C186.734 133.58 177.494 142.893 165.761 149.64C154.027 156.24 140.974 159.54 126.601 159.54ZM126.601 142.16C137.307 142.16 146.914 139.667 155.421 134.68C164.074 129.693 170.821 122.58 175.661 113.34C180.647 104.1 183.141 93.3933 183.141 81.22C183.141 68.9 180.647 58.1933 175.661 49.1C170.821 39.86 164.147 32.7467 155.641 27.76C147.134 22.7733 137.454 20.28 126.601 20.28C115.747 20.28 106.067 22.7733 97.5606 27.76C89.054 32.7467 82.3073 39.86 77.3206 49.1C72.4806 58.1933 70.0606 68.9 70.0606 81.22C70.0606 93.3933 72.4806 104.1 77.3206 113.34C82.3073 122.58 89.054 129.693 97.5606 134.68C106.214 139.667 115.894 142.16 126.601 142.16ZM350.59 158H330.57L250.05 35.9V158H230.03V4.44H250.05L330.57 126.32V4.44H350.59V158ZM404.737 20.94V72.2H460.617V88.7H404.737V141.5H467.217V158H384.717V4.44H467.217V20.94H404.737Z" fill="white"/>
<path d="M22.96 4.65999H25.46V2.15999H22.96V4.65999ZM22.96 158V160.5H25.46V158H22.96ZM2.94 158H0.440001V160.5H2.94V158ZM2.94 4.65999V2.15999H0.440001V4.65999H2.94ZM22.96 4.65999H20.46V158H22.96H25.46V4.65999H22.96ZM22.96 158V155.5H2.94V158V160.5H22.96V158ZM2.94 158H5.44V4.65999H2.94H0.440001V158H2.94ZM2.94 4.65999V7.15999H22.96V4.65999V2.15999H2.94V4.65999ZM87.6606 149.64L86.4145 151.807L86.4247 151.813L86.435 151.819L87.6606 149.64ZM59.7206 121.7L57.5403 122.923L57.5492 122.939L57.5583 122.955L59.7206 121.7ZM59.7206 40.96L57.5516 39.7168L57.5467 39.7254L59.7206 40.96ZM87.6606 13.02L88.8863 15.1989L88.8966 15.1931L88.9068 15.1873L87.6606 13.02ZM165.761 13.02L164.514 15.1873L164.525 15.1931L164.535 15.1989L165.761 13.02ZM193.481 40.74L195.655 39.5054V39.5054L193.481 40.74ZM193.481 121.7L191.307 120.465L193.481 121.7ZM165.761 149.64L166.986 151.819L166.997 151.813L167.007 151.807L165.761 149.64ZM155.421 134.68L154.172 132.514L154.164 132.519L154.156 132.523L155.421 134.68ZM175.661 113.34L173.461 112.153L173.453 112.166L173.446 112.18L175.661 113.34ZM175.661 49.1L173.446 50.26L173.457 50.2812L173.469 50.3021L175.661 49.1ZM155.641 27.76L154.376 29.9167V29.9167L155.641 27.76ZM97.5606 27.76L98.8249 29.9167V29.9167L97.5606 27.76ZM77.3206 49.1L75.1206 47.9127L75.1171 47.919L75.1138 47.9254L77.3206 49.1ZM77.3206 113.34L75.106 114.5L75.1132 114.514L75.1206 114.527L77.3206 113.34ZM97.5606 134.68L96.2963 136.837L96.3043 136.841L96.3124 136.846L97.5606 134.68ZM126.601 159.54V157.04C112.778 157.04 100.224 153.839 88.8863 147.461L87.6606 149.64L86.435 151.819C98.5639 158.641 111.97 162.04 126.601 162.04V159.54ZM87.6606 149.64L88.9068 147.473C77.5595 140.948 68.5597 131.952 61.883 120.445L59.7206 121.7L57.5583 122.955C64.6683 135.208 74.2951 144.839 86.4145 151.807L87.6606 149.64ZM59.7206 121.7L61.901 120.477C55.3815 108.855 52.1006 95.789 52.1006 81.22H49.6006H47.1006C47.1006 96.571 50.5665 110.492 57.5403 122.923L59.7206 121.7ZM49.6006 81.22H52.1006C52.1006 66.6506 55.3815 53.6631 61.8945 42.1946L59.7206 40.96L57.5467 39.7254C50.5664 52.0169 47.1006 65.8694 47.1006 81.22H49.6006ZM59.7206 40.96L61.8896 42.2032C68.5656 30.5556 77.5581 21.571 88.8863 15.1989L87.6606 13.02L86.435 10.8411C74.2965 17.669 64.6623 27.311 57.5516 39.7168L59.7206 40.96ZM87.6606 13.02L88.9068 15.1873C100.241 8.6699 112.788 5.39999 126.601 5.39999V2.89999V0.399991C111.96 0.399991 98.5466 3.87675 86.4145 10.8527L87.6606 13.02ZM126.601 2.89999V5.39999C140.565 5.39999 153.184 8.67218 164.514 15.1873L165.761 13.02L167.007 10.8527C154.871 3.87446 141.383 0.399991 126.601 0.399991V2.89999ZM165.761 13.02L164.535 15.1989C175.866 21.5727 184.781 30.4835 191.307 41.9746L193.481 40.74L195.655 39.5054C188.687 27.2365 179.122 17.6673 166.986 10.8411L165.761 13.02ZM193.481 40.74L191.307 41.9746C197.818 53.4394 201.101 66.4993 201.101 81.22H203.601H206.101C206.101 65.7274 202.637 51.8005 195.655 39.5054L193.481 40.74ZM203.601 81.22H201.101C201.101 95.9407 197.818 109.001 191.307 120.465L193.481 121.7L195.655 122.935C202.637 110.639 206.101 96.7126 206.101 81.22H203.601ZM193.481 121.7L191.307 120.465C184.778 131.961 175.857 140.951 164.514 147.473L165.761 149.64L167.007 151.807C179.131 144.836 188.69 135.199 195.655 122.935L193.481 121.7ZM165.761 149.64L164.535 147.461C153.201 153.836 140.575 157.04 126.601 157.04V159.54V162.04C141.373 162.04 154.853 158.644 166.986 151.819L165.761 149.64ZM126.601 142.16V144.66C137.712 144.66 147.762 142.067 156.685 136.837L155.421 134.68L154.156 132.523C146.066 137.266 136.902 139.66 126.601 139.66V142.16ZM155.421 134.68L156.669 136.846C165.752 131.612 172.825 124.141 177.875 114.5L175.661 113.34L173.446 112.18C168.816 121.019 162.396 127.775 154.172 132.514L155.421 134.68ZM175.661 113.34L177.861 114.527C183.074 104.868 185.641 93.7414 185.641 81.22H183.141H180.641C180.641 93.0453 178.221 103.332 173.461 112.153L175.661 113.34ZM183.141 81.22H185.641C185.641 68.5587 183.076 57.4232 177.853 47.8979L175.661 49.1L173.469 50.3021C178.218 58.9634 180.641 69.2412 180.641 81.22H183.141ZM175.661 49.1L177.875 47.94C172.831 38.3104 165.839 30.8406 156.905 25.6033L155.641 27.76L154.376 29.9167C162.455 34.6528 168.81 41.4096 173.446 50.26L175.661 49.1ZM155.641 27.76L156.905 25.6033C147.977 20.3696 137.852 17.78 126.601 17.78V20.28V22.78C137.056 22.78 146.291 25.177 154.376 29.9167L155.641 27.76ZM126.601 20.28V17.78C115.349 17.78 105.224 20.3696 96.2963 25.6033L97.5606 27.76L98.8249 29.9167C106.91 25.177 116.146 22.78 126.601 22.78V20.28ZM97.5606 27.76L96.2963 25.6033C87.3691 30.8365 80.3099 38.2972 75.1206 47.9127L77.3206 49.1L79.5207 50.2873C84.3047 41.4228 90.7388 34.6569 98.8249 29.9167L97.5606 27.76ZM77.3206 49.1L75.1138 47.9254C70.047 57.4448 67.5606 68.5703 67.5606 81.22H70.0606H72.5606C72.5606 69.2297 74.9143 58.9418 79.5275 50.2746L77.3206 49.1ZM70.0606 81.22H67.5606C67.5606 93.7298 70.0495 104.847 75.106 114.5L77.3206 113.34L79.5352 112.18C74.9117 103.353 72.5606 93.0569 72.5606 81.22H70.0606ZM77.3206 113.34L75.1206 114.527C80.3099 124.143 87.3691 131.604 96.2963 136.837L97.5606 134.68L98.8249 132.523C90.7388 127.783 84.3047 121.017 79.5207 112.153L77.3206 113.34ZM97.5606 134.68L96.3124 136.846C105.373 142.067 115.488 144.66 126.601 144.66V142.16V139.66C116.299 139.66 107.055 137.266 98.8089 132.514L97.5606 134.68ZM350.59 158V160.5H353.09V158H350.59ZM330.57 158L328.483 159.376L329.224 160.5H330.57V158ZM250.05 35.9L252.137 34.5237L247.55 27.5679V35.9H250.05ZM250.05 158V160.5H252.55V158H250.05ZM230.03 158H227.53V160.5H230.03V158ZM230.03 4.44V1.94H227.53V4.44H230.03ZM250.05 4.44L252.136 3.06195L251.395 1.94H250.05V4.44ZM330.57 126.32L328.484 127.698L333.07 134.64V126.32H330.57ZM330.57 4.44V1.94H328.07V4.44H330.57ZM350.59 4.44H353.09V1.94H350.59V4.44ZM350.59 158V155.5H330.57V158V160.5H350.59V158ZM330.57 158L332.657 156.624L252.137 34.5237L250.05 35.9L247.963 37.2763L328.483 159.376L330.57 158ZM250.05 35.9H247.55V158H250.05H252.55V35.9H250.05ZM250.05 158V155.5H230.03V158V160.5H250.05V158ZM230.03 158H232.53V4.44H230.03H227.53V158H230.03ZM230.03 4.44V6.94H250.05V4.44V1.94H230.03V4.44ZM250.05 4.44L247.964 5.81805L328.484 127.698L330.57 126.32L332.656 124.942L252.136 3.06195L250.05 4.44ZM330.57 126.32H333.07V4.44H330.57H328.07V126.32H330.57ZM330.57 4.44V6.94H350.59V4.44V1.94H330.57V4.44ZM350.59 4.44H348.09V158H350.59H353.09V4.44H350.59ZM404.737 20.94V18.44H402.237V20.94H404.737ZM404.737 72.2H402.237V74.7H404.737V72.2ZM460.617 72.2H463.117V69.7H460.617V72.2ZM460.617 88.7V91.2H463.117V88.7H460.617ZM404.737 88.7V86.2H402.237V88.7H404.737ZM404.737 141.5H402.237V144H404.737V141.5ZM467.217 141.5H469.717V139H467.217V141.5ZM467.217 158V160.5H469.717V158H467.217ZM384.717 158H382.217V160.5H384.717V158ZM384.717 4.44V1.94H382.217V4.44H384.717ZM467.217 4.44H469.717V1.94H467.217V4.44ZM467.217 20.94V23.44H469.717V20.94H467.217ZM404.737 20.94H402.237V72.2H404.737H407.237V20.94H404.737ZM404.737 72.2V74.7H460.617V72.2V69.7H404.737V72.2ZM460.617 72.2H458.117V88.7H460.617H463.117V72.2H460.617ZM460.617 88.7V86.2H404.737V88.7V91.2H460.617V88.7ZM404.737 88.7H402.237V141.5H404.737H407.237V88.7H404.737ZM404.737 141.5V144H467.217V141.5V139H404.737V141.5ZM467.217 141.5H464.717V158H467.217H469.717V141.5H467.217ZM467.217 158V155.5H384.717V158V160.5H467.217V158ZM384.717 158H387.217V4.44H384.717H382.217V158H384.717ZM384.717 4.44V6.94H467.217V4.44V1.94H384.717V4.44ZM467.217 4.44H464.717V20.94H467.217H469.717V4.44H467.217ZM467.217 20.94V18.44H404.737V20.94V23.44H467.217V20.94Z" fill="white"/>
</g>
</svg>
