<svg width="70" height="70" viewBox="0 0 70 70" fill="none" xmlns="http://www.w3.org/2000/svg">
<path opacity="0.5" fill-rule="evenodd" clip-rule="evenodd" d="M5.83334 35.0002C5.83334 18.8919 18.8917 5.8335 35 5.8335C51.1083 5.8335 64.1667 18.8919 64.1667 35.0002C64.1667 51.1085 51.1083 64.1668 35 64.1668C18.8917 64.1668 5.83334 51.1085 5.83334 35.0002ZM32.8125 14.5835C32.8125 13.3754 33.7919 12.396 35 12.396C47.4839 12.396 57.6042 22.5162 57.6042 35.0002C57.6042 47.4841 47.4839 57.6043 35 57.6043C22.5161 57.6043 12.3958 47.4841 12.3958 35.0002C12.3958 33.792 13.3752 32.8127 14.5833 32.8127C15.7915 32.8127 16.7708 33.792 16.7708 35.0002C16.7708 45.0679 24.9323 53.2293 35 53.2293C45.0677 53.2293 53.2292 45.0679 53.2292 35.0002C53.2292 24.9325 45.0677 16.771 35 16.771C33.7919 16.771 32.8125 15.7916 32.8125 14.5835ZM35 21.146C33.7919 21.146 32.8125 22.1254 32.8125 23.3335C32.8125 24.5416 33.7919 25.521 35 25.521C40.2352 25.521 44.4792 29.765 44.4792 35.0002C44.4792 40.2354 40.2352 44.4793 35 44.4793C33.7919 44.4793 32.8125 45.4587 32.8125 46.6668C32.8125 47.875 33.7919 48.8543 35 48.8543C42.6515 48.8543 48.8542 42.6516 48.8542 35.0002C48.8542 27.3487 42.6515 21.146 35 21.146Z" fill="#32C956"/>
<path d="M32.8125 14.5835C32.8125 13.3754 33.7919 12.396 35 12.396C47.4839 12.396 57.6042 22.5162 57.6042 35.0002C57.6042 47.4841 47.4839 57.6043 35 57.6043C22.5161 57.6043 12.3958 47.4841 12.3958 35.0002C12.3958 33.792 13.3752 32.8127 14.5833 32.8127C15.7915 32.8127 16.7708 33.792 16.7708 35.0002C16.7708 45.0679 24.9323 53.2293 35 53.2293C45.0677 53.2293 53.2292 45.0679 53.2292 35.0002C53.2292 24.9325 45.0677 16.771 35 16.771C33.7919 16.771 32.8125 15.7916 32.8125 14.5835Z" fill="#32C956"/>
<path d="M35 21.146C33.7919 21.146 32.8125 22.1254 32.8125 23.3335C32.8125 24.5416 33.7919 25.521 35 25.521C40.2352 25.521 44.4792 29.765 44.4792 35.0002C44.4792 40.2354 40.2352 44.4793 35 44.4793C33.7919 44.4793 32.8125 45.4587 32.8125 46.6668C32.8125 47.875 33.7919 48.8543 35 48.8543C42.6515 48.8543 48.8542 42.6516 48.8542 35.0002C48.8542 27.3487 42.6515 21.146 35 21.146Z" fill="#32C956"/>
</svg>
