<svg width="70" height="70" viewBox="0 0 70 70" fill="none" xmlns="http://www.w3.org/2000/svg">
<path d="M53.5409 3.97888C54.1625 2.94292 55.5062 2.60699 56.5421 3.22857L55.4167 5.10433C56.5421 3.22857 56.5421 3.22857 56.5421 3.22857L56.5462 3.231L56.5508 3.23378L56.5616 3.24035L56.5895 3.25761C56.611 3.27095 56.6379 3.28799 56.67 3.30875C56.7342 3.35026 56.8191 3.40676 56.9218 3.47861C57.1268 3.62216 57.4039 3.82779 57.7285 4.09833C58.3763 4.63817 59.2235 5.44462 60.0672 6.54143C61.7672 8.75149 63.4375 12.1258 63.4375 16.771C63.4375 21.4162 61.7672 24.7905 60.0672 27.0006C59.2235 28.0974 58.3763 28.9038 57.7285 29.4437C57.4039 29.7142 57.1268 29.9198 56.9218 30.0634C56.8191 30.1352 56.7342 30.1917 56.67 30.2333C56.654 30.2436 56.6393 30.253 56.6259 30.2615C56.6124 30.2701 56.6003 30.2777 56.5895 30.2844L56.5616 30.3017L56.5508 30.3082L56.5462 30.311C56.5462 30.311 56.5421 30.3134 55.4167 28.4377L56.5421 30.3134C55.5062 30.935 54.1625 30.5991 53.5409 29.5631C52.9219 28.5315 53.2524 27.1948 54.2782 26.5698L54.2943 26.5595C54.3156 26.5457 54.356 26.5191 54.4129 26.4793C54.5268 26.3995 54.7055 26.2679 54.9277 26.0827C55.3737 25.7111 55.9848 25.1321 56.5995 24.3331C57.8161 22.7515 59.0625 20.2924 59.0625 16.771C59.0625 13.2496 57.8161 10.7905 56.5995 9.20891C55.9848 8.40989 55.3737 7.83092 54.9277 7.4593C54.7055 7.2741 54.5268 7.14249 54.4129 7.06275C54.356 7.02294 54.3156 6.99627 54.2943 6.98252L54.2782 6.97222C53.2524 6.34723 52.9219 5.01048 53.5409 3.97888Z" fill="#32C956"/>
<path d="M29.1667 28.4377C35.61 28.4377 40.8333 23.2143 40.8333 16.771C40.8333 10.3277 35.61 5.10433 29.1667 5.10433C22.7233 5.10433 17.5 10.3277 17.5 16.771C17.5 23.2143 22.7233 28.4377 29.1667 28.4377Z" fill="#32C956"/>
<path d="M50.7088 9.0619C49.6728 8.44033 48.3291 8.77625 47.7076 9.81221L48.4316 12.7974L48.4542 12.8129C48.4884 12.8368 48.5531 12.8841 48.6387 12.9554C48.8112 13.0991 49.0578 13.3318 49.3078 13.6568C49.7953 14.2905 50.3125 15.2912 50.3125 16.771C50.3125 18.2508 49.7953 19.2515 49.3078 19.8852C49.0578 20.2102 48.8112 20.4429 48.6387 20.5866C48.5531 20.6579 48.4884 20.7052 48.4542 20.7291L48.4316 20.7446C47.4163 21.373 47.0913 22.7027 47.7076 23.7298C48.3291 24.7658 49.6728 25.1017 50.7088 24.4801L49.5833 22.6043C50.7088 24.4801 50.7088 24.4801 50.7088 24.4801L50.7127 24.4777L50.7169 24.4752L50.7261 24.4696L50.7478 24.4562L50.8039 24.4206C50.8468 24.3929 50.9004 24.3572 50.9631 24.3132C51.0884 24.2255 51.2515 24.1042 51.4395 23.9476C51.8138 23.6356 52.2964 23.1755 52.7755 22.5527C53.7464 21.2905 54.6875 19.3746 54.6875 16.771C54.6875 14.1674 53.7464 12.2515 52.7755 10.9893C52.2964 10.3665 51.8138 9.9064 51.4395 9.59442C51.2515 9.43782 51.0884 9.3165 50.9631 9.22877C50.9004 9.18484 50.8468 9.14912 50.8039 9.12143L50.7478 9.0858L50.7261 9.0724L50.7169 9.06679L50.7127 9.06425C50.7127 9.06425 50.7088 9.0619 49.5833 10.9377L50.7088 9.0619Z" fill="#32C956"/>
<path opacity="0.5" d="M5.83331 50.3125C5.83331 57.5612 5.83331 63.4375 29.1666 63.4375C52.5 63.4375 52.5 57.5612 52.5 50.3125C52.5 43.0638 42.0533 37.1875 29.1666 37.1875C16.28 37.1875 5.83331 43.0638 5.83331 50.3125Z" fill="#32C956"/>
</svg>
